<svg xmlns="http://www.w3.org/2000/svg" width="512" height="512" viewBox="0 0 887 887">
  <g transform="translate(0.000000,887.000000) scale(0.100000,-0.100000)">
    <path d="M8585 8851 c-197 -70 -440 -236 -907 -618 -103 -84 -190 -153 -195
-152 -4 0 -39 41 -78 91 -38 50 -122 144 -185 208 l-115 118 -95 6 c-107 7
-414 50 -720 101 -477 79 -719 105 -1000 105 -159 0 -189 -3 -211 -18 -22 -15
-486 -420 -1469 -1283 -140 -124 -493 -433 -785 -689 -291 -255 -656 -575
-810 -710 -438 -385 -1152 -1011 -1597 -1400 -224 -195 -407 -359 -407 -365 0
-8 245 -358 916 -1305 37 -51 164 -231 648 -915 469 -662 790 -1116 1030
-1455 142 -201 289 -409 327 -463 38 -54 74 -97 78 -95 5 2 163 138 352 304
189 166 404 355 479 420 75 65 336 294 580 509 244 214 608 533 809 709 201
176 565 496 810 711 512 450 858 753 1481 1300 244 214 455 400 469 413 14 12
55 48 91 79 l66 57 7 100 c10 153 41 423 90 811 84 650 111 977 104 1251 l-4
169 -90 120 c-50 66 -143 197 -207 290 l-115 171 141 134 c382 365 673 738
767 982 54 138 36 254 -46 308 -38 26 -139 26 -209 1z m169 -107 c48 -47 -11
-213 -146 -414 -132 -196 -377 -475 -622 -709 -33 -31 -70 -66 -82 -78 -11
-13 -24 -23 -27 -23 -3 0 -72 97 -154 216 -81 118 -154 223 -161 233 -12 17 2
31 145 148 442 363 756 581 908 629 57 18 120 17 139 -2z m-1804 -1591 c-55
-140 -70 -183 -76 -220 -6 -40 -6 -40 35 -56 66 -27 121 -23 270 19 24 7 24 7
18 -52 -10 -83 -60 -180 -114 -218 -54 -38 -134 -46 -217 -22 -96 28 -162 105
-187 219 -24 109 23 255 100 317 42 32 112 59 158 60 l32 0 -19 -47z m134 32
c-4 -9 10 -33 34 -60 22 -25 45 -59 50 -75 10 -27 8 -29 -26 -43 -48 -19 -114
-29 -128 -20 -8 6 -1 35 22 98 19 50 36 96 39 103 2 6 7 12 9 12 3 0 3 -7 0
-15z" fill="#e1e1e1"/>
    <path d="M8655 8860 c-204 -41 -579 -298 -1192 -817 l-121 -103 -126 178 -126
178 -213 28 c-202 26 -929 122 -1407 186 -124 17 -237 30 -252 30 -20 0 -110
-73 -400 -326 -205 -180 -391 -343 -413 -363 -22 -20 -74 -65 -115 -101 -41
-36 -93 -81 -115 -101 -22 -20 -355 -313 -741 -650 -385 -338 -882 -774 -1105
-969 -222 -195 -602 -527 -844 -739 -242 -212 -442 -388 -445 -391 -3 -4 -169
-149 -370 -324 -201 -175 -376 -329 -389 -341 l-23 -23 273 -386 c151 -213
299 -422 329 -466 30 -43 161 -228 291 -412 633 -894 762 -1076 969 -1368 239
-337 730 -1033 788 -1115 49 -70 113 -158 122 -168 4 -5 174 137 376 315 203
178 529 463 724 634 370 324 835 732 1515 1329 220 193 618 542 885 776 549
481 882 773 1216 1066 l229 201 33 304 c82 753 157 1456 177 1652 15 139 15
150 -2 175 -9 14 -100 143 -201 286 -102 143 -185 265 -186 271 -1 6 48 55
108 109 529 479 903 959 957 1228 19 92 -22 182 -98 213 -35 15 -48 16 -108 4z
m111 -115 c98 -150 -357 -773 -929 -1272 -84 -73 -100 -84 -112 -72 -17 19
-325 456 -325 463 0 6 222 197 368 317 485 395 789 588 929 589 45 0 55 -3 69
-25z m-1733 -1362 c10 -6 6 -20 -68 -213 -62 -161 -85 -232 -85 -258 0 -25 70
-45 140 -39 82 6 139 25 261 87 112 56 109 58 109 -61 0 -184 -84 -352 -219
-439 -62 -39 -160 -70 -225 -70 -64 0 -161 25 -214 56 -70 41 -149 129 -186
208 -77 162 -76 320 3 482 64 129 174 220 302 248 58 13 160 13 182 -1z m152
-69 c26 -19 61 -51 78 -71 31 -35 86 -121 87 -135 0 -11 -162 -96 -225 -118
-62 -21 -120 -26 -130 -10 -3 5 16 67 43 137 27 70 58 152 68 181 10 28 21 52
25 52 4 0 28 -16 54 -36z m-1076 -234 c18 -44 259 -604 286 -665 39 -88 235
-545 235 -549 0 -3 13 -33 29 -68 17 -35 43 -95 59 -134 l30 -71 -165 -144
c-91 -79 -179 -154 -194 -167 l-29 -23 -77 63 c-73 58 -370 302 -563 462 -94
78 -176 144 -203 165 -9 8 -20 11 -23 9 -3 -3 25 -86 61 -184 37 -99 75 -201
85 -229 11 -27 37 -97 58 -155 22 -58 64 -172 95 -255 30 -82 67 -179 80 -215
l25 -66 -189 -164 c-105 -91 -194 -165 -198 -165 -7 0 -435 388 -676 611 -11
11 -96 89 -190 174 -93 85 -181 165 -195 178 -14 13 -73 67 -132 120 -107 97
-108 97 -86 115 11 10 53 46 92 81 101 90 260 225 262 223 1 -1 60 -58 131
-126 70 -69 225 -220 344 -338 119 -117 219 -213 223 -213 12 0 6 28 -23 101
-44 115 -91 239 -215 573 -94 253 -113 311 -101 320 7 6 90 78 183 159 94 82
173 149 175 150 3 1 139 -108 302 -243 449 -370 465 -383 470 -379 4 4 -94
222 -182 409 -14 30 -74 159 -133 287 l-108 232 186 161 185 161 34 -78 c19
-43 43 -98 52 -123z m-1838 -1592 c63 -90 115 -168 117 -174 2 -7 -87 -90
-197 -185 -111 -95 -201 -176 -201 -179 0 -4 125 -182 580 -830 115 -164 180
-259 180 -263 0 -2 -75 -69 -167 -148 -199 -172 -223 -192 -227 -188 -2 2
-110 157 -241 344 -131 187 -301 429 -377 538 -125 176 -159 214 -170 189 -5
-12 -377 -332 -385 -332 -8 1 -43 50 -180 247 l-64 93 33 28 c18 16 263 229
543 472 281 244 537 467 570 497 33 29 63 53 66 53 3 0 57 -73 120 -162z
m-1438 -1239 c153 -50 285 -211 324 -394 27 -130 -4 -282 -82 -399 -21 -31
-35 -59 -32 -63 3 -3 27 2 53 11 113 38 216 11 495 -130 115 -58 231 -118 258
-133 l50 -27 -81 -69 c-45 -39 -144 -125 -221 -192 l-139 -121 -82 38 c-44 21
-173 83 -286 137 -241 117 -267 127 -330 121 -49 -5 -140 -59 -140 -83 0 -10
321 -476 381 -554 11 -13 19 -27 19 -31 0 -9 -351 -319 -376 -333 -9 -5 -17
-7 -19 -5 -34 37 -1003 1433 -998 1438 4 3 148 128 318 276 171 148 346 299
390 335 225 184 347 228 498 178z M2526 3755 c-21 -7 -54 -25 -74 -39 -64 -45
-231 -191 -231 -201 -1 -6 29 -53 65 -105 36 -52 80 -116 97 -142 18 -26 38
-48 45 -48 19 0 194 157 237 213 67 88 80 148 46 222 -19 42 -82 105 -106 105
-7 0 -19 2 -27 5 -7 2 -30 -2 -52 -10z" fill="#3f3f3f"/>
    <path d="M5838 7120 l-186 -161 108 -232 c59 -128 119 -257 133 -287 88 -187
186 -405 182 -409 -5 -4 -21 9 -470 379 -163 135 -299 244 -302 243 -2 -1 -81
-68 -175 -150 -93 -81 -176 -153 -183 -159 -12 -9 7 -67 101 -320 124 -334
171 -458 215 -573 29 -73 35 -101 23 -101 -4 0 -104 96 -223 213 -119 118
-274 269 -344 338 -71 68 -130 125 -131 126 -2 2 -161 -133 -262 -223 -39 -35
-81 -71 -92 -81 -22 -18 -21 -18 86 -115 59 -53 118 -107 132 -120 14 -13 102
-93 195 -178 94 -85 179 -163 190 -174 241 -223 669 -611 676 -611 4 0 93 74
198 165 l189 164 -25 66 c-13 36 -50 133 -80 215 -31 83 -73 197 -95 255 -21
58 -47 128 -58 155 -10 28 -48 130 -85 229 -36 98 -64 181 -61 184 3 2 14 -1
23 -9 27 -21 109 -87 203 -165 193 -160 490 -404 563 -462 l77 -63 29 23 c15
13 103 88 194 167 l165 144 -30 71 c-16 39 -42 99 -59 134 -16 35 -29 65 -29
68 0 4 -196 461 -235 549 -27 61 -268 621 -286 665 -9 25 -33 80 -52 123 l-34
78 -185 -161z M4085 5597 c-33 -30 -289 -253 -570 -497 -280 -243 -525 -456
-543 -472 l-33 -28 64 -93 c137 -197 172 -246 180 -247 8 0 380 320 385 332
11 25 45 -13 170 -189 76 -109 246 -351 377 -538 131 -187 239 -342 241 -344
4 -4 28 16 227 188 92 79 167 146 167 148 0 4 -65 99 -180 263 -455 648 -580
826 -580 830 0 3 90 84 201 179 110 95 199 178 197 185 -4 16 -230 336 -237
336 -3 0 -33 -24 -66 -53z M2651 4260 c-127 -30 -200 -84 -706 -524 -170 -148
-314 -273 -318 -276 -5 -5 964 -1401 998 -1438 2 -2 10 0 19 5 25 14 376 324
376 333 0 4 -8 18 -19 31 -60 78 -381 544 -381 554 0 24 91 78 140 83 63 6 89
-4 330 -121 113 -54 242 -116 286 -137 l82 -38 139 121 c77 67 176 153 221
192 l81 69 -50 27 c-27 15 -143 75 -258 133 -279 141 -382 168 -495 130 -26
-9 -50 -14 -53 -11 -3 4 11 32 32 63 78 117 109 269 82 399 -56 266 -293 455
-506 405z m-46 -500 c24 0 87 -63 106 -105 34 -74 21 -134 -46 -222 -43 -56
-218 -213 -237 -213 -7 0 -27 22 -45 48 -17 26 -61 90 -97 142 -36 52 -66 99
-65 105 0 10 167 156 231 201 42 30 107 55 126 49 8 -3 20 -5 27 -5z" fill="#ffffff"/>
  </g>
</svg>
